<mxfile host="app.diagrams.net" modified="2022-10-31T23:53:01.201Z" agent="5.0 (Windows NT 10.0; Win64; x64) AppleWebKit/537.36 (KHTML, like Gecko) Chrome/106.0.0.0 Safari/537.36" etag="PAdJypk2WY3fF-dyeksg" version="20.5.1" type="github">
  <diagram id="H0ON2f_15NVZSamJTb4W" name="Página-1">
    <mxGraphModel dx="1422" dy="800" grid="1" gridSize="10" guides="1" tooltips="1" connect="1" arrows="1" fold="1" page="1" pageScale="1" pageWidth="1169" pageHeight="827" math="0" shadow="0">
      <root>
        <mxCell id="0" />
        <mxCell id="1" parent="0" />
        <mxCell id="N7_YvTh9Ru7VLPoMYilD-1" value="&lt;h1&gt;Usuário requisita empréstimo&lt;/h1&gt;&lt;p&gt;Através do APP, o usuário faz a requisição do empréstimo.&lt;/p&gt;&lt;p&gt;&lt;br&gt;&lt;/p&gt;&lt;p&gt;O valor do empréstimo pode estar na faixa pré-aprovada, ou pode ser superior.&lt;/p&gt;&lt;p&gt;&lt;br&gt;&lt;/p&gt;&lt;p&gt;O usuário deve ser informado que sua solicitação foi enviada.&lt;/p&gt;" style="text;html=1;strokeColor=#d6b656;fillColor=#fff2cc;spacing=5;spacingTop=-20;whiteSpace=wrap;overflow=hidden;rounded=0;" vertex="1" parent="1">
          <mxGeometry x="80" y="80" width="360" height="200" as="geometry" />
        </mxCell>
        <mxCell id="N7_YvTh9Ru7VLPoMYilD-2" value="&lt;h1&gt;Aplicação recebe requisição de empréstimo&lt;/h1&gt;&lt;p&gt;1. Deve ser armazenado o status do processamento (INICIADO).&lt;/p&gt;&lt;p&gt;&lt;span style=&quot;background-color: initial;&quot;&gt;2. Caso o valor esteja dentro da faixa pré-aprovada,&lt;/span&gt;&lt;/p&gt;&lt;p&gt;&lt;span style=&quot;background-color: initial;&quot;&gt;&lt;span style=&quot;&quot;&gt;	&lt;/span&gt;&lt;span style=&quot;white-space: pre;&quot;&gt;	&lt;/span&gt;2.1 Não é necessário enviar para verificação, status = &quot;Pendente envio ao financeiro&quot;&lt;/span&gt;&lt;/p&gt;&lt;p&gt;&lt;span style=&quot;background-color: initial;&quot;&gt;&lt;span style=&quot;white-space: pre;&quot;&gt;	&lt;/span&gt;2.2 Enviar diretamente para o Financeiro, status = &quot;Enviado ao financeiro&quot;&lt;/span&gt;&lt;/p&gt;&lt;p&gt;&lt;span style=&quot;background-color: initial;&quot;&gt;3. Caso o valor esteja acima da faixa pré-aprovada,&lt;/span&gt;&lt;/p&gt;&lt;p&gt;&lt;span style=&quot;background-color: initial;&quot;&gt;&lt;span style=&quot;white-space: pre;&quot;&gt;	&lt;/span&gt;3.1 Enviar para a verificação, status = &quot;Em análise de crédito&quot;&lt;/span&gt;&lt;/p&gt;&lt;p&gt;&lt;span style=&quot;background-color: initial;&quot;&gt;&lt;span style=&quot;&quot;&gt;	&lt;span style=&quot;&quot;&gt;	&lt;/span&gt;&lt;span style=&quot;white-space: pre;&quot;&gt;	&lt;/span&gt;&lt;span style=&quot;white-space: pre;&quot;&gt;	&lt;/span&gt;3&lt;/span&gt;.1.1 Caso seja aceito, status = &quot;Pendente envio ao financeiro&quot;&lt;/span&gt;&lt;/p&gt;&lt;p&gt;&lt;span style=&quot;background-color: initial;&quot;&gt;&lt;span style=&quot;white-space: pre;&quot;&gt;	&lt;/span&gt;&lt;span style=&quot;white-space: pre;&quot;&gt;	&lt;/span&gt;3.1.2 Enviar ao financeiro, status = &quot;Enviado ao financeiro&quot;&lt;/span&gt;&lt;/p&gt;&lt;p&gt;&lt;span style=&quot;background-color: initial;&quot;&gt;&lt;br&gt;&lt;/span&gt;&lt;/p&gt;&lt;p&gt;A cada alteração de status, o serviço de notificações deve ser informado.&lt;/p&gt;" style="text;html=1;strokeColor=#d6b656;fillColor=#fff2cc;spacing=5;spacingTop=-20;whiteSpace=wrap;overflow=hidden;rounded=0;" vertex="1" parent="1">
          <mxGeometry x="520" y="80" width="520" height="320" as="geometry" />
        </mxCell>
      </root>
    </mxGraphModel>
  </diagram>
</mxfile>
